<?xml version="1.0" encoding="utf-8"?>
<!-- Generator: Adobe Illustrator 17.0.2, SVG Export Plug-In . SVG Version: 6.00 Build 0)  -->
<!DOCTYPE svg PUBLIC "-//W3C//DTD SVG 1.1//EN" "http://www.w3.org/Graphics/SVG/1.1/DTD/svg11.dtd">
<svg version="1.1" id="Layer_1" xmlns="http://www.w3.org/2000/svg" xmlns:xlink="http://www.w3.org/1999/xlink" x="0px" y="0px"
	 width="141px" height="283.333px" viewBox="0 0 141 283.333" enable-background="new 0 0 141 283.333" xml:space="preserve">
<g>
	<path d="M55.113,139.107c-1.321,0.392-1.952,2.835-1.515,3.874c0.489,1.175,3.775,1.025,4.758,1.464
		c0.979,0.445,2.552-0.003,3.334-0.54c0.786-0.542,1.837-1.649,2.227-2.875s-1.99-2.279-3.68-3.086
		C58.544,137.138,56.439,138.709,55.113,139.107z"/>
	<path d="M115.243,12.216c-16.773-10.4-51.022-16.97-67.222-2.804c-6.897,6.031-17.892,7.57-20.626,17.323
		c-0.904,3.224-1.355,6.935-3.21,9.802c-2.363,3.652-8.911,2.787-12.43,5.7c-8.807,7.291-9.577,21.515-9.84,31.974
		c-0.346,13.79-1.16,30.391,1.315,44.074c0.064,0.393,0.136,0.799,0.222,1.234c0.067-0.268,0.127-0.529,0.182-0.784
		c1.557-6.524,2.323-13.199,3.099-19.851c0.869-7.45,4.165-14.635,4.381-22.015c0.337-11.565,4.219-26.153,12.582-34.542
		c11.424-11.46,26.092-3.457,39.537-1.814c10.355,1.265,27.991,3.395,35.721,10.971c3.285,3.219,7.941,4.654,10.993,8.013
		c5.06,5.57,1.837,13.323,5.174,19.626c1.481,2.798,4.401,11.676-0.432,13.715c-2.621,1.106-8.991-5.242-12.732-5.143
		c-7.657,0.203-25.278-1.758-30.582,6.074l-0.003-0.005c-0.002,0.005-0.003,0.011-0.004,0.016c-0.587,0.87-1.029,1.854-1.282,2.981
		c-0.477,2.124-0.431,4.202,0.009,6.197c-0.327,4.929-0.351,9.856-0.468,11.329c-0.2,2.508-0.06,8.375,0.84,10.544
		c0.896,2.173,3.698,3.02,5.916,4.831c2.218,1.811,4.391,3.179,4.839,5.393c0.453,2.218,0.588,5.822-1.717,7.637
		c-2.305,1.815,0.29-1.612-0.516-2.889c-0.805-1.273-3.585-4.161-7.08-2.903c0,0-3.826,2.421-2.749,4.124
		c1.077,1.698,0.587,1.326,1.443,2.257c0.856,0.931,1.245,2.25-0.896,2.888c-2.141,0.642-1.423,2.69-1.996,2.918
		c-0.569,0.223-3.14,0.823-3.301-0.77c-0.161-1.598-1.101-1.673-2.362-1.546c-1.256,0.127-3.987,0.828-4.682,1.49
		c-0.695,0.666-4.001,5.747-4.949,6.439c-0.948,0.687-5.246,3.497-7.227,4.038c-1.981,0.536-6.688,3.737-7.04,6.731
		c-0.337,2.866-1.391,4.036,0.814,2.79c2.163-1.222,1.65-3.975,4.788-4.722c2.625-0.625,5.009-2.192,5.663-2.428
		c0.657-0.237,3.679-0.542,4.636-1.145c0.956-0.608,2.014-1.902,3.476-2.556c1.458-0.658,2.819-2.32,3.742-1.566
		s3.04,1.558,3.816,2.497c0.772,0.94,1.244,0.556,2.87-0.119c1.627-0.671,3.962-1.077,5.003-0.846
		c1.041,0.236,2.808,0.905,4.233,1.612c1.429,0.703,2.673,1.254,3.63,2.346s-5.831-2.294-7.002-2.176
		c-1.176,0.119-1.934,1.042-3.376,1.865c-1.445,0.827-3.928,1.414-6.044,0.61c-2.121-0.804-4.339-2.615-7.49-0.262
		c-3.156,2.354-4.032,3.792-7.073,3.737c-2.509-0.046-6.418,0.722-4.997,2.108c1.191,1.162,3.245,4.209,4.517,3.399
		c1.277-0.806,3.207-1.848,4.855-2.355c1.643-0.507,7.671-1.281,9.218-1.101c1.547,0.185,3.275,0.517,4.823,0.701
		c1.543,0.185,5.442,0.128,6.647,0.347c1.21,0.219,2.892,0.049,3.377,1.524c0.49,1.479,1.701,3.392,0.407,4.034
		c-1.29,0.637-2.836,2.151-4.21,1.949c-1.378-0.197-4.287-0.415-6.336-0.548c-2.048-0.129-5.407,0.21-7.32,1.42
		c-1.913,1.211-3.117,4.385-3.117,4.385s-0.218,2.904,0.622,4.519c0.844,1.609,5.871,7.718,8.072,7.667s6.112,0.06,7.186-1.066
		c1.074-1.126,9.614-8.945,9.461-10.454c-0.153-1.513-0.22-2.183-1.431-4.096c-1.211-1.913,1.49-3.714,1.49-3.714
		s3.055-1.667,4.332-2.472s3.292-1.009,3.342-2.202c0.05-1.193,0.146-1.88,0.348-3.258c0.202-1.379,0.939-2.471,1.158-1.982
		c0.219,0.484,0.805,1.273,1.847,3.203c1.047,1.93,1.953,2.519,2.59,3.813c0.641,1.289,2.454,2.464,2.673,1.254
		c0.219-1.21,1.761-2.719,1.794-4.081c0.033-1.362,0.719-2.959-0.289-4.552s-0.981-4.653-3.266-5.44
		c-2.285-0.787-3.529-1.338-5.274-1.839c-1.745-0.505-3.935-3.678-5.112-5.253s-2.339-6.381-2.542-8.395
		c-0.203-2.015-0.558-3.844-0.813-6.364l-0.661-6.55c-0.152-1.509-0.272-4.384-0.593-5.875c-0.321-1.496,0.251-2.572,0.297-3.764
		c0.042-0.995-0.776-1.194-0.251-2.101c3.404,1.951,7.021,3.252,10.237,3.671c4.988,0.65,9.782,0.429,14.522-1.365
		c4.718-1.785,5.462-7.417,9.153-8.735c7.963-2.843,8.989,5.845,8.67,11.632c-0.934,16.968-7.551,36.194-17.32,49.891
		c-3.666,5.14-10.131,21.009-17.587,22.086c-2.127-0.124-4.223-0.448-6.288-0.973c-2.11,0.19-4.707,3.738-6.541,4.812
		c-6.105,3.575-9.599-1.015-15.657-1.11c-9.678-0.151-22.479,2.103-27.957-8.367c-4.891-9.349-6.989-28.47-17.958-32.726
		c1.804,0.7,0.537,18.889,0.381,20.381c-0.957,9.121,11.178,21.902,17.156,27.8c8.337,8.226,18.499,13.029,30.229,13.888
		c6.269,0.459,12.765-0.089,18.884-1.526c1.584-0.372,4.418-0.91,7.366-1.607l-0.001,0.001c0,0,5.314,1.235,6.267,1.553
		c0.953,0.318,3.704,2.328,4.763,3.81s1.693,4.022,1.693,6.773s-0.635,2.54-0.741,3.598s-1.693,4.551-1.588,6.456
		c0.106,1.905,3.387,4.868,4.974,6.985s2.117,3.387,4.974-0.635c2.858-4.022,3.916-0.529,2.858,2.434s-2.646,4.551-3.281,6.668
		s-2.328,9.948-2.434,11.7c-0.106,1.751,1.058,8.197,1.058,8.197s0,0,1.693-0.953c1.693-0.953,16.934-64.03,11.219-64.453
		c-5.715-0.423-7.938-3.175-8.573-3.81c-0.524-0.524,0.178-6.169,0.736-10.445c1.289-2.267,2.569-4.66,3.926-7.244
		c6.177-11.764,6.207-25.218,11.009-37.506c4.372-11.187,3.906-29.47,4.404-41.571c0.229-5.574-0.327-11.212,0.701-16.737
		c1.171-6.293,3.24-12.128,5.011-18.155C142.851,58.056,132.567,22.958,115.243,12.216z"/>
	<path d="M47.946,87.72c-5.423,0.316-10.948-0.784-16.281,0.763c-2.904,0.842-9.473,7.336-10.892,10.047
		c-1.896,3.621-3.664,10.336-0.435,13.355c2.93,2.74,7.058-1.729,9.605,3.101c2.653,5.031,4.681,7.248,11.59,6.512
		c7.823-0.833,12.085-3.435,16.811-9.421c3.362-4.258,1.581-12.73,1.842-17.663C60.511,88.291,52.478,87.456,47.946,87.72z"/>
	<path d="M31.674,264.795c0-4.233-2.54-8.255-3.387-11.853c-0.847-3.598-3.81-8.89-6.197-14.393
		c-2.387-5.503-1.846-13.97-1.211-15.663s2.117-5.927,2.328-10.583c0.212-4.657,0-8.255,0-8.255s-5.398,2.54-6.668,3.387
		c-1.27,0.847-4.763,0.423-4.763,0.423s3.724,36.349,8.89,46.779c5.166,10.429,1.865,7.101,5.166,10.429l-0.005-0.022
		c2.562,5.774,14.127,19.625,12.62,16.263C36.754,277.529,31.674,269.029,31.674,264.795z M15.983,224.975
		c1.114-3.528,6.789-9.845,4.354-4.842c-2.654,5.451-0.728,12.7,0,15.875c0.728,3.175,2.024,11.853,3.082,15.028
		c1.026,3.08,1.847,8.139,1.896,11.918L15.983,224.975z"/>
</g>
</svg>
